<?xml version="1.0" standalone="no"?>
<!DOCTYPE svg PUBLIC "-//W3C//DTD SVG 20010904//EN"
 "http://www.w3.org/TR/2001/REC-SVG-20010904/DTD/svg10.dtd">
<svg version="1.0" xmlns="http://www.w3.org/2000/svg"
 width="528.000000pt" height="528.000000pt" viewBox="0 0 528.000000 528.000000"
 preserveAspectRatio="xMidYMid meet">
<metadata>
Created by potrace 1.14, written by Peter Selinger 2001-2017
</metadata>
<g transform="translate(0.000000,528.000000) scale(0.100000,-0.100000)"
fill="#000000" stroke="none">
<path d="M2720 4315 c-147 -148 -322 -247 -531 -300 -622 -158 -1059 -589
-1154 -1139 -8 -49 -15 -121 -15 -160 l0 -71 -83 -1 c-133 -1 -245 -58 -329
-169 -115 -150 -101 -396 31 -576 75 -102 211 -182 333 -196 45 -5 47 -7 53
-45 14 -83 83 -197 174 -289 239 -241 643 -398 1150 -449 134 -13 409 -13 547
1 669 66 1198 351 1302 702 12 42 22 59 37 62 157 29 232 62 310 136 101 96
161 220 172 358 14 185 -73 333 -245 418 -71 36 -82 38 -168 38 l-91 0 -6 105
c-7 115 -26 220 -59 320 -109 333 -380 637 -721 810 l-118 60 46 20 c26 11 51
20 56 20 22 0 5 31 -39 72 -71 66 -143 91 -269 92 l-101 1 -11 56 c-16 80 -60
142 -123 173 -29 14 -57 26 -63 26 -6 0 -44 -34 -85 -75z m148 -44 c39 -40 56
-105 48 -186 -4 -41 -3 -65 3 -65 6 0 33 9 61 20 66 26 159 26 244 0 36 -12
66 -24 66 -28 0 -4 -13 -15 -29 -25 -29 -17 -81 -72 -81 -86 0 -4 17 -13 38
-20 80 -28 243 -112 331 -171 113 -76 261 -216 342 -323 101 -134 189 -337
220 -507 19 -105 16 -316 -5 -418 -30 -140 -88 -292 -123 -317 -12 -9 -7 -19
25 -55 55 -63 88 -119 111 -187 l20 -58 -32 -17 c-47 -25 -54 -23 -72 31 -18
54 -74 146 -123 203 -32 35 -32 36 -17 78 47 133 61 384 30 535 -55 266 -212
474 -431 571 -132 58 -182 69 -319 69 -111 0 -140 -4 -195 -23 -129 -47 -253
-143 -327 -255 l-31 -48 -23 33 c-97 141 -242 246 -392 285 -75 20 -222 22
-297 4 -81 -19 -227 -93 -296 -150 -74 -61 -165 -174 -205 -252 -97 -193 -121
-474 -63 -756 l16 -82 -50 -57 c-52 -58 -112 -159 -112 -188 0 -21 -13 -20
-61 4 -35 18 -39 24 -33 48 11 45 60 135 103 189 l40 52 -39 83 c-150 321
-145 681 15 998 65 129 134 221 254 340 212 211 401 311 781 415 174 48 377
165 500 290 30 30 60 55 66 55 7 0 26 -13 42 -29z m-622 -1056 c134 -50 261
-169 339 -316 20 -38 38 -69 41 -69 2 0 15 24 28 54 74 168 213 295 371 342
78 23 218 23 305 0 263 -71 438 -249 511 -521 18 -65 22 -108 22 -230 0 -156
-11 -234 -53 -352 -24 -68 -24 -73 -6 -73 23 0 103 -97 136 -164 59 -119 57
-235 -5 -361 -130 -266 -531 -466 -1054 -526 -159 -18 -515 -7 -671 21 -451
80 -789 269 -907 507 -36 74 -38 81 -38 177 0 91 3 106 28 154 15 29 56 86 91
125 l62 72 -13 50 c-49 189 -55 452 -14 610 67 259 269 467 505 521 93 21 234
12 322 -21z m-1228 -653 c10 -7 35 -112 28 -119 -1 -2 -18 2 -37 7 -112 32
-221 -16 -276 -124 -23 -43 -27 -64 -28 -136 0 -77 3 -92 33 -153 47 -96 123
-148 233 -163 52 -7 58 -16 43 -71 -8 -29 -36 -30 -112 -3 -177 62 -295 230
-296 420 0 111 24 171 98 246 74 74 140 103 236 103 36 1 71 -3 78 -7z m3427
-33 c122 -57 195 -174 195 -313 0 -124 -39 -225 -122 -313 -72 -75 -153 -117
-265 -137 -31 -5 -31 -5 -35 43 l-3 49 51 5 c151 16 255 120 280 283 8 53 -19
157 -53 207 -55 79 -167 114 -266 84 l-48 -15 7 56 c3 31 9 60 13 64 26 26
179 19 246 -13z m-3410 -163 c26 -11 36 -24 50 -65 16 -50 16 -51 -5 -81 -30
-43 -36 -100 -16 -154 16 -41 16 -46 -1 -81 l-18 -37 -63 5 c-145 11 -237 142
-204 289 28 124 134 175 257 124z m3357 -12 c59 -30 97 -140 78 -230 -23 -108
-115 -184 -226 -184 -48 0 -51 2 -67 36 -11 23 -14 40 -9 48 19 24 34 89 27
122 -3 19 -20 50 -36 69 -29 32 -30 37 -19 70 26 77 161 115 252 69z m-272
-238 l-1 -41 -23 29 c-20 24 -22 33 -14 52 16 35 38 11 38 -40z m-2960 13 c0
-3 -6 -12 -14 -18 -19 -16 -30 2 -21 37 6 26 7 26 21 8 8 -11 14 -23 14 -27z"/>
<path d="M2041 2480 c-181 -45 -243 -319 -103 -459 109 -109 260 -87 346 52
35 56 46 160 26 232 -34 123 -158 203 -269 175z m148 -107 c64 -53 24 -191
-48 -168 -62 19 -80 107 -32 156 34 33 50 36 80 12z"/>
<path d="M3108 2478 c-81 -21 -158 -119 -173 -220 -29 -193 152 -362 310 -289
170 77 202 333 59 460 -26 22 -63 43 -89 50 -50 13 -56 13 -107 -1z m37 -113
c19 -18 25 -35 25 -70 0 -35 -6 -52 -25 -70 -32 -32 -50 -31 -86 4 -55 56 -25
156 49 160 7 1 24 -10 37 -24z"/>
<path d="M2461 2011 c-13 -3 -34 -19 -45 -34 -19 -26 -19 -30 -5 -55 12 -23
22 -27 59 -28 34 0 46 -5 48 -17 3 -12 14 -17 39 -17 l35 0 -7 37 c-10 55 -32
91 -65 108 -16 8 -30 15 -32 14 -2 -1 -14 -4 -27 -8z"/>
<path d="M2715 1996 c-27 -27 -51 -96 -41 -121 9 -25 60 -16 64 11 3 20 6 21
32 11 38 -15 80 12 80 51 0 33 -8 45 -37 61 -34 18 -72 13 -98 -13z"/>
<path d="M2810 1729 c-98 -30 -239 -36 -336 -14 -146 33 -222 20 -278 -45 -70
-83 -37 -195 82 -281 109 -78 255 -110 408 -89 281 37 452 193 389 355 -35 92
-123 117 -265 74z m70 -64 c0 -3 -16 -23 -36 -45 -45 -49 -108 -70 -213 -70
-92 1 -156 14 -197 42 -32 22 -59 56 -51 65 3 2 42 -4 88 -13 94 -19 239 -15
324 9 54 16 85 20 85 12z m-90 -230 c17 -9 30 -20 30 -25 0 -29 -258 -52 -349
-30 -55 13 -60 19 -33 42 28 25 40 26 185 27 105 1 145 -3 167 -14z"/>
</g>
</svg>
