<svg width="1200" height="845" viewBox="0 0 1200 845" fill="none" xmlns="http://www.w3.org/2000/svg">
<g opacity="0.2">
<path d="M71.4485 854L599.5 427L-48.3478 854H71.4485ZM245.995 854L599.5 427L155.644 854H246.022H245.995ZM387.691 854L599.5 427L312.648 854H387.691ZM513.099 854L599.5 427L445.574 854H513.126H513.099ZM-94 583.923L599.5 427L-94 533.178V583.923ZM632.132 854L599.5 427L566.868 854H632.105H632.132ZM-94 813.884L599.5 427L-94 740.055V813.884ZM-94 493.552L599.5 426.973L-94 446.186V493.525V493.552ZM-94 686.966L599.5 427L-94 628.318V686.939V686.966ZM1293 740.055L599.5 427L1293 813.884V740.055ZM1293 628.318L599.5 426.973L1293 686.939V628.318ZM1293 446.213L599.5 427L1293 493.579V446.241V446.213ZM1247.35 854L599.5 427L1127.55 854H1247.35ZM886.352 854L599.5 427L811.309 854H886.352ZM753.427 854L599.5 427L685.902 854H753.454H753.427ZM1043.36 854L599.5 427L953.005 854H1043.36ZM1293 533.178L599.5 426.973L1293 583.896V533.15V533.178ZM685.902 0L599.5 427L753.427 0H685.874H685.902ZM953.005 0L599.5 427L1043.36 0H953.005ZM811.309 0L599.5 427L886.352 0H811.309ZM1293 40.1164L599.5 427L1293 113.945V40.1164ZM1127.61 0L599.5 427L1247.4 0H1127.61ZM1293 360.421L599.5 427L1293 407.787V360.448V360.421ZM1293 167.061L599.5 427L1293 225.709V167.088V167.061ZM1293 270.05L599.5 426.973L1293 320.768V270.023V270.05ZM-94 407.759L599.5 426.973L-94 360.421V407.759ZM-94 225.682L599.5 426.973L-94 167.061V225.682ZM-48.4295 0L599.473 427L71.394 0H-48.4295ZM-94 113.945L599.5 427L-94 40.1164V113.945ZM-94 320.795L599.5 427L-94 270.05V320.795ZM155.644 0L599.5 427L245.995 0H155.644ZM445.574 0L599.5 427L513.099 0H445.546H445.574ZM566.868 0L599.5 427L632.132 0H566.895H566.868ZM312.648 0L599.5 427L387.691 0H312.648Z" fill="rgba(255,255,255,1)" style="mix-blend-mode:color-burn"/>
</g>
<defs>
<radialGradient id="paint0_radial_116_2710" cx="0" cy="0" r="1" gradientUnits="userSpaceOnUse" gradientTransform="translate(599.5 427) scale(575.801 576.101)">
<stop stop-color="white" stop-opacity="0"/>
<stop offset="0.939833" stop-color="white"/>
</radialGradient>
</defs>
</svg>
